HIERARCHY
ROOT root
{
	OFFSET 0.000000 0.000000 0.000000
	CHANNELS 6 Xposition Yposition Zposition Zrotation Yrotation Xrotation
	JOINT lhip
	{
		OFFSET 0.058581 -0.082280 -0.017664
		CHANNELS 3 Zrotation Yrotation Xrotation
		JOINT lknee
		{
			OFFSET 0.043451 -0.386469 0.008037
			CHANNELS 3 Zrotation Yrotation Xrotation
			JOINT lankle
			{
				OFFSET -0.014790 -0.426874 -0.037428
				CHANNELS 3 Zrotation Yrotation Xrotation
				JOINT ltoe
				{
					OFFSET 0.041054 -0.060286 0.122042
					CHANNELS 3 Zrotation Yrotation Xrotation
					End Site
					{
						OFFSET 0.000000 0.000000 0.000000
					}
				}
			}
		}
	}
	JOINT rhip
	{
		OFFSET -0.060310 -0.090513 -0.013543
		CHANNELS 3 Zrotation Yrotation Xrotation
		JOINT rknee
		{
			OFFSET -0.043257 -0.383688 -0.004843
			CHANNELS 3 Zrotation Yrotation Xrotation
			JOINT rankle
			{
				OFFSET 0.019056 -0.420046 -0.034562
				CHANNELS 3 Zrotation Yrotation Xrotation
				JOINT rtoe
				{
					OFFSET -0.034840 -0.062106 0.130323
					CHANNELS 3 Zrotation Yrotation Xrotation
					End Site
					{
						OFFSET 0.000000 0.000000 0.000000
					}
				}
			}
		}
	}
	JOINT lowerback
	{
		OFFSET 0.004439 0.124404 -0.038385
		CHANNELS 3 Zrotation Yrotation Xrotation
		JOINT upperback
		{
			OFFSET 0.004488 0.137956 0.026820
			CHANNELS 3 Zrotation Yrotation Xrotation
			JOINT chest
			{
				OFFSET -0.002265 0.056032 0.002855
				CHANNELS 3 Zrotation Yrotation Xrotation
				JOINT lowerneck
				{
					OFFSET -0.013390 0.211636 -0.033468
					CHANNELS 3 Zrotation Yrotation Xrotation
					JOINT upperneck
					{
						OFFSET 0.010113 0.088937 0.050410
						CHANNELS 3 Zrotation Yrotation Xrotation
						End Site
						{
							OFFSET 0.000000 0.000000 0.000000
						}
					}
				}
				JOINT lclavicle
				{
					OFFSET 0.071702 0.114000 -0.018898
					CHANNELS 3 Zrotation Yrotation Xrotation
					JOINT lshoulder
					{
						OFFSET 0.122921 0.045205 -0.019046
						CHANNELS 3 Zrotation Yrotation Xrotation
						JOINT lelbow
						{
							OFFSET 0.255332 -0.015649 -0.022946
							CHANNELS 3 Zrotation Yrotation Xrotation
							JOINT lwrist
							{
								OFFSET 0.265709 0.012698 -0.007375
								CHANNELS 3 Zrotation Yrotation Xrotation
								End Site
								{
									OFFSET 0.000000 0.000000 0.000000
								}
							}
						}
					}
				}
				JOINT rclavicle
				{
					OFFSET -0.082954 0.112472 -0.023707
					CHANNELS 3 Zrotation Yrotation Xrotation
					JOINT rshoulder
					{
						OFFSET -0.113228 0.046853 -0.008472
						CHANNELS 3 Zrotation Yrotation Xrotation
						JOINT relbow
						{
							OFFSET -0.260127 -0.014369 -0.031269
							CHANNELS 3 Zrotation Yrotation Xrotation
							JOINT rwrist
							{
								OFFSET -0.269108 0.006794 -0.006027
								CHANNELS 3 Zrotation Yrotation Xrotation
								End Site
								{
									OFFSET 0.000000 0.000000 0.000000
								}
							}
						}
					}
				}
			}
		}
	}
}
MOTION
Frames: 16
Frame Time: 0.033333
-0.375035 2.443246 0.995478 -177.552683 -0.990992 84.706213 -5.792527 1.254968 5.224589 -3.155119 3.700701 -2.381504 10.963874 17.524376 -7.880911 0.000000 -0.000000 0.000000 -2.028582 1.986134 -11.541552 -2.887398 -5.852397 64.194146 9.492251 -11.132121 6.896092 0.000000 -0.000000 0.000000 -3.170877 -1.575520 8.950272 -1.903989 -0.682577 9.522688 -1.165130 -0.076723 1.205276 -1.311678 12.866199 14.712138 -2.540860 26.773384 2.661254 -21.774568 -1.736471 5.195200 -60.040756 -0.808979 5.527225 7.323907 -45.602064 7.217841 12.219884 -5.467972 1.639251 15.855696 7.268258 2.535164 71.849969 3.875465 19.266783 -16.707668 46.371340 -3.304485 8.862277 7.600957 5.943839 
-0.376129 2.463305 0.996665 -177.359879 -0.408468 84.196780 -5.235602 2.379831 7.812498 -2.784097 2.574600 -3.618704 10.366853 17.574873 -8.763172 0.000000 -0.000000 0.000000 -1.181634 3.242580 -14.880261 -3.189855 -6.009448 63.271183 8.745017 -10.863256 -0.897788 0.000000 -0.000000 0.000000 -3.051738 -2.871269 10.031589 -1.985355 -0.548266 9.185772 -1.313981 -0.380308 1.268594 -0.982278 11.347568 14.864770 -1.430109 23.919875 4.142310 -22.183747 -2.798868 4.821826 -60.505302 -3.708221 6.368799 9.220023 -47.389677 5.314721 12.026980 -5.504716 1.054386 16.040240 7.593692 2.698821 71.726483 3.830512 18.692421 -16.775938 46.655365 -2.743816 8.957454 7.586574 5.518657 
-0.376583 2.482845 0.997587 -177.166853 0.296152 83.941142 -4.303116 3.418833 9.821889 -2.615763 1.678236 -4.327622 9.738079 17.363183 -9.826763 0.000000 -0.000000 0.000000 -0.465950 4.150312 -17.868654 -3.777364 -6.874822 59.664495 7.926268 -12.005089 -6.926563 0.000000 -0.000000 0.000000 -2.913620 -4.216727 10.998861 -1.973042 -0.572188 8.639051 -1.252453 -0.830212 1.446683 -0.964653 9.925325 14.623460 -0.565759 21.704385 5.448977 -22.316609 -3.348632 4.876497 -60.884316 -6.335164 7.075427 10.385001 -50.685960 4.160872 11.951902 -5.746840 0.174865 16.052622 7.696075 2.862887 71.487294 3.944343 18.281728 -16.787163 46.824043 -2.538026 9.001829 7.547470 5.440138 
-0.376661 2.502001 0.997939 -177.034419 0.943362 83.810525 -3.315162 4.362072 11.070178 -2.547241 1.098996 -3.946633 9.239807 17.011809 -11.202526 0.000000 -0.000000 0.000000 0.043529 4.336249 -20.411496 -4.256600 -8.097092 54.146834 7.295711 -13.578210 -9.346351 0.000000 -0.000000 0.000000 -2.849578 -5.402529 12.060395 -1.885319 -0.822476 7.864638 -1.011254 -1.344860 1.693812 -1.184937 8.672596 13.915563 0.128093 20.075830 6.836646 -22.221657 -3.568094 5.041462 -60.903086 -8.472235 7.745705 10.498416 -54.984007 4.231057 11.934460 -6.388878 -0.852789 16.044087 7.540364 2.945204 71.112079 4.182915 18.015382 -16.805418 46.800837 -2.713757 8.792007 7.592824 5.898312 
-0.376354 2.521111 0.997826 -177.282688 1.399464 83.763209 -2.484447 5.489432 11.863946 -2.454240 0.849517 -2.888089 8.729827 16.538080 -12.643180 0.000000 -0.000000 0.000000 0.510308 3.906827 -22.441758 -3.775907 -8.866887 47.807452 7.235305 -13.113456 -10.544320 0.000000 -0.000000 0.000000 -2.841546 -6.111161 12.939609 -1.789249 -1.172649 7.302349 -0.734742 -1.768466 1.789816 -1.320543 7.791690 13.633978 0.656906 18.717603 7.581450 -22.119248 -3.737344 5.070162 -60.412375 -10.074918 8.321147 9.932283 -59.503687 5.376352 11.400650 -7.230378 -1.580452 16.209561 7.342650 3.178363 70.507951 4.454934 17.456040 -16.675832 46.793308 -2.719923 8.386164 7.742361 6.293137 
-0.375661 2.540507 0.997027 -178.114899 1.612883 83.838331 -1.871181 6.744332 12.520040 -2.424891 1.105584 -1.773770 8.148661 16.043565 -13.939148 0.000000 -0.000000 0.000000 1.162634 2.910200 -23.919886 -3.437382 -9.785969 41.318400 7.977903 -12.151758 -10.804768 0.000000 -0.000000 0.000000 -2.798368 -6.282125 13.314710 -1.769757 -1.442177 7.001284 -0.511664 -2.035079 1.860693 -1.385544 7.069154 13.709516 1.213399 17.711017 8.048306 -21.959093 -3.985999 5.056214 -59.616657 -11.306806 8.762362 8.965388 -63.465109 6.745890 10.732608 -8.069440 -2.055136 16.349360 7.244787 3.441829 69.914531 4.631070 16.857852 -16.576436 46.599584 -2.723908 8.365868 7.753744 6.748479 
-0.374603 2.560821 0.995602 -179.285584 1.631783 83.870640 -1.393177 7.886781 13.325028 -2.605702 1.799440 -0.729801 7.545033 15.746280 -14.956890 0.000000 -0.000000 0.000000 1.876267 1.307203 -24.394750 -3.732762 -12.580932 34.919991 8.041601 -12.983220 -9.459478 0.000000 -0.000000 0.000000 -2.682055 -6.188253 13.510222 -1.863508 -1.598417 6.529966 -0.332774 -2.177316 2.093696 -1.516581 6.194978 13.630743 1.991257 16.692933 9.003624 -21.629041 -4.067713 5.168412 -58.892297 -12.229944 9.036247 7.594401 -66.542114 8.316017 9.846286 -8.648114 -2.882441 16.363483 7.055503 3.617199 69.538419 4.676297 16.377347 -16.543160 46.184471 -2.666809 8.649000 7.598059 7.289220 
-0.373365 2.582345 0.993664 179.419542 1.350666 83.811271 -1.226373 8.989642 14.199948 -2.753768 2.605813 0.520993 6.924679 15.560089 -15.687934 0.000000 -0.000000 0.000000 2.617151 -1.034924 -24.068836 -3.956561 -16.520388 29.604706 7.579306 -14.766029 -7.637902 0.000000 -0.000000 0.000000 -2.616548 -5.834159 13.632895 -2.038759 -1.762453 5.941647 -0.157894 -2.273790 2.306062 -1.750706 4.971472 13.650032 2.719439 15.613696 10.084457 -21.323802 -3.930077 5.385650 -58.310637 -12.744168 9.039006 5.553185 -68.544243 10.520291 9.189458 -8.971348 -3.905096 16.338940 6.800782 3.798605 69.283466 4.532646 15.796206 -16.381100 45.711922 -2.551209 8.762869 7.452542 7.662447 
-0.371957 2.605191 0.991348 178.001466 0.792749 83.801326 -1.236757 9.976806 14.978187 -2.925328 3.296647 2.144372 6.169896 15.166414 -16.337085 0.000000 -0.000000 0.000000 3.340815 -3.549751 -23.379423 -3.925862 -20.325549 26.098797 7.308557 -16.217024 -6.428619 0.000000 -0.000000 0.000000 -2.657277 -5.338869 13.313434 -2.180946 -1.929388 5.618543 -0.048893 -2.365158 2.359999 -1.902659 3.705539 13.960373 3.071392 14.505901 10.864509 -21.189372 -3.523310 5.771336 -57.866913 -12.760804 8.830722 3.694233 -69.539755 12.489651 8.601622 -9.145543 -4.758563 16.414146 6.514788 3.987680 69.016441 4.331486 15.207195 -16.024891 45.067071 -2.243882 8.614578 7.425740 7.904855 
-0.370111 2.629163 0.988727 176.386311 0.121262 83.908363 -1.247215 10.725547 15.503284 -3.222923 3.555915 4.354306 5.386475 14.818368 -16.931272 0.000000 -0.000000 0.000000 4.142828 -5.477665 -22.475794 -3.973065 -23.087867 24.109764 5.666890 -17.964924 -5.207330 0.000000 -0.000000 0.000000 -2.730996 -4.909124 12.556541 -2.260168 -1.972264 5.344332 -0.050812 -2.409505 2.589566 -1.907335 2.603829 14.021633 3.262288 13.490822 11.627013 -21.127611 -2.643256 6.070205 -57.645574 -12.359872 8.534678 1.583266 -69.523262 14.853065 8.420402 -8.978801 -5.527063 16.597477 5.996269 4.010005 68.681220 4.234748 14.795823 -15.386535 44.309650 -1.340798 8.294382 7.397798 7.908878 
-0.367484 2.654390 0.986390 174.708165 -0.339882 83.595372 -0.887309 11.180213 16.237211 -3.585273 3.858278 7.478397 4.459847 14.363168 -17.476154 0.000000 -0.000000 0.000000 5.062563 -6.638143 -20.658845 -4.842216 -25.021748 23.314245 3.433751 -17.683957 -5.884060 0.000000 -0.000000 0.000000 -2.694151 -4.282799 12.304522 -1.737162 -1.915968 4.652765 -0.752740 -2.393015 3.661354 1.210363 4.220072 13.572476 1.640464 8.826672 11.495361 -20.903884 -1.007891 5.617050 -57.587659 -12.226232 10.189201 1.861124 -67.919065 16.288333 8.662883 -8.725806 -8.204216 18.142627 4.022900 3.521011 66.949954 4.499350 15.311337 -14.220581 44.256980 3.209733 7.355779 7.398014 3.292439 
-0.364760 2.680640 0.984168 172.983682 -0.972378 83.833300 -0.999369 11.166253 15.093921 -3.838913 5.017259 12.910995 2.980676 13.863301 -18.035225 0.000000 -0.000000 0.000000 5.212761 -6.641451 -19.335439 -4.955967 -23.542921 23.463792 1.831708 -17.595165 -7.852072 0.000000 -0.000000 0.000000 -2.549034 -3.848016 11.188090 -1.484291 -1.891504 4.751362 -1.135672 -2.377043 3.854538 2.067456 3.552251 13.310747 1.258431 6.995889 11.864934 -21.167660 0.477489 5.742136 -57.721528 -11.057716 10.160179 1.328565 -65.995214 17.850518 7.375253 -8.563863 -8.896249 18.652948 2.972988 3.373301 66.515676 4.321088 15.167715 -14.014452 43.642206 4.576648 7.380773 7.250152 1.770207 
-0.362151 2.706898 0.983564 171.373412 -1.300154 83.637871 -0.362040 10.935105 13.365017 -4.465346 7.039891 20.421349 1.099759 13.024226 -17.820877 0.000000 -0.000000 0.000000 4.737404 -5.956966 -17.711300 -4.380037 -22.073956 24.501008 0.766395 -17.538018 -9.843577 0.000000 -0.000000 0.000000 -2.164788 -3.629184 10.577433 -1.145006 -1.827152 5.086893 -1.463634 -2.328288 3.899024 2.559104 2.376933 12.872773 1.245939 5.393342 12.128722 -21.721639 1.584310 5.851520 -57.986594 -9.703223 9.864877 1.751027 -62.729823 18.097449 6.656111 -8.073239 -8.733850 19.232808 2.299570 3.208480 65.851534 4.238280 14.750285 -13.655447 42.554972 5.411138 7.050724 7.022113 0.588123 
-0.359117 2.731944 0.984095 169.456246 -1.300097 83.065766 1.105981 10.614288 11.149396 -5.039502 9.110004 29.319309 -0.740833 11.624367 -15.832734 0.000000 -0.000000 0.000000 4.613686 -5.098239 -15.926864 -4.171428 -21.445932 25.820901 -0.568567 -17.389002 -10.689906 0.000000 -0.000000 0.000000 -1.713424 -3.399245 10.769482 -0.713142 -1.683237 5.300298 -1.597805 -2.191058 3.713977 2.907335 0.729353 12.578855 1.581520 3.451659 12.251943 -22.359743 2.270922 6.089228 -58.475655 -8.171965 9.352745 3.119742 -58.400584 17.679674 6.030169 -7.189367 -7.803654 19.722612 2.118589 3.237292 65.146470 4.212068 13.905199 -13.299402 41.345715 6.221106 6.593812 6.823714 -0.747483 
-0.355637 2.755525 0.983939 167.077316 -1.356137 82.551716 1.995720 9.894036 8.205939 -4.745670 9.929415 38.711079 -1.481134 10.528651 -12.240824 0.000000 -0.000000 0.000000 4.785419 -4.720437 -14.351652 -4.138976 -20.005173 27.153744 -2.123082 -16.844324 -11.019356 0.000000 -0.000000 0.000000 -1.523402 -2.746918 10.968129 -0.310973 -1.751340 5.647795 -1.555556 -2.085434 3.411122 3.059846 -1.405445 12.552000 2.342134 1.491558 11.813261 -22.824062 2.696852 6.423193 -59.139449 -6.412571 8.786478 4.676698 -53.579744 17.357432 6.198214 -5.693583 -6.383705 20.005720 2.261676 3.275114 64.635562 4.196746 12.990979 -12.984002 40.312177 6.844614 6.077348 6.505829 -2.331953 
-0.352328 2.777528 0.982594 164.508993 -1.378755 82.078914 2.133653 8.256465 4.778786 -3.916254 9.955115 47.553359 -1.028081 10.711945 -10.457051 0.000000 -0.000000 0.000000 5.083937 -4.571431 -12.899310 -3.957487 -17.955370 28.360317 -3.167837 -16.526815 -11.957014 0.000000 -0.000000 0.000000 -1.290714 -1.832763 11.134876 0.035021 -2.151515 5.999584 -1.539766 -2.157918 3.335736 3.129980 -3.814326 12.487580 3.268754 -0.226462 10.948789 -23.332865 2.847915 6.869557 -59.643327 -4.505374 8.206461 6.047952 -48.724240 16.781845 7.297950 -3.975218 -5.287589 20.185634 2.572852 3.146914 64.275840 4.231570 12.328908 -12.785205 39.603074 6.913519 5.022028 6.275269 -3.938424 
